<?xml version="1.0" encoding="utf-8"?>
<!-- Generator: Adobe Illustrator 17.0.0, SVG Export Plug-In . SVG Version: 6.00 Build 0)  -->
<!DOCTYPE svg PUBLIC "-//W3C//DTD SVG 1.1//EN" "http://www.w3.org/Graphics/SVG/1.1/DTD/svg11.dtd">
<svg version="1.1" id="Layer_1" xmlns="http://www.w3.org/2000/svg" xmlns:xlink="http://www.w3.org/1999/xlink" x="0px" y="0px"
	 width="256px" height="256px" viewBox="0 0 256 256" enable-background="new 0 0 256 256" xml:space="preserve">
<g>
	<g>
		<polygon fill="#FFFFFF" points="163.312,77.209 156.332,85.249 226.788,85.249 226.788,229.96 25.8,229.96 25.8,85.249 
			96.255,85.249 89.276,77.209 17.76,77.209 17.76,238 234.828,238 234.828,77.209 		"/>
	</g>
	<path fill="#FFFFFF" d="M152.049,26.039l13.143,15.273L126.294,86.13L87.395,41.312l13.143-15.273H152.049 M155.735,18H96.852
		L76.769,41.334l49.525,57.062l49.525-57.062L155.735,18L155.735,18z"/>
	<path fill="#FFFFFF" d="M126.294,121.085c20.134,0,36.516,16.383,36.516,36.519c0,20.134-16.381,36.516-36.516,36.516
		c-20.134,0-36.516-16.381-36.516-36.516C89.778,137.469,106.16,121.085,126.294,121.085 M126.294,113.046
		c-24.605,0-44.555,19.95-44.555,44.559c0,24.605,19.95,44.555,44.555,44.555s44.555-19.95,44.555-44.555
		C170.849,132.996,150.899,113.046,126.294,113.046L126.294,113.046z"/>
</g>
</svg>
