<?xml version="1.0" encoding="utf-8"?>
<!-- Generator: Adobe Illustrator 17.0.0, SVG Export Plug-In . SVG Version: 6.00 Build 0)  -->
<!DOCTYPE svg PUBLIC "-//W3C//DTD SVG 1.1//EN" "http://www.w3.org/Graphics/SVG/1.1/DTD/svg11.dtd">
<svg version="1.1" id="Layer_1" xmlns="http://www.w3.org/2000/svg" xmlns:xlink="http://www.w3.org/1999/xlink" x="0px" y="0px"
	 width="256px" height="256px" viewBox="0 0 256 256" enable-background="new 0 0 256 256" xml:space="preserve">
<g>
	<path fill="#FFFFFF" d="M104.741,231.5c-10.861,0-19.696-8.839-19.696-19.704c0-10.866,8.835-19.705,19.696-19.705
		c10.867,0,19.706,8.839,19.706,19.705C124.447,222.661,115.608,231.5,104.741,231.5z M104.741,199.861
		c-6.576,0-11.927,5.355-11.927,11.937c0,6.58,5.351,11.935,11.927,11.935c6.582,0,11.937-5.355,11.937-11.935
		C116.677,205.215,111.323,199.861,104.741,199.861z"/>
	<path fill="#FFFFFF" d="M210.049,231.5c-10.867,0-19.705-8.839-19.705-19.704c0-10.866,8.839-19.705,19.705-19.705
		c10.861,0,19.698,8.839,19.698,19.705C229.746,222.661,220.91,231.5,210.049,231.5z M210.049,199.861
		c-6.582,0-11.937,5.355-11.937,11.937c0,6.58,5.355,11.935,11.937,11.935c6.578,0,11.929-5.355,11.929-11.935
		C221.977,205.215,216.626,199.861,210.049,199.861z"/>
	<path fill="#FFFFFF" d="M111.141,146.296L51.864,34.269H20.544V26.5h35.997l11.876,22.444L235.456,47.1v84.335L111.141,146.296z
		 M72.504,56.668l43.01,81.283l112.172-13.411V54.957L72.504,56.668z"/>
	<path fill="#FFFFFF" d="M234.744,180.671H92.211c-7.212-0.58-20.247-5.388-20.247-19.534c0-14.117,13.127-19.051,20.068-19.684
		l20.71-3.17l1.173,7.682l-20.943,3.196c-1.55,0.159-13.239,1.618-13.239,11.976c0,10.605,12.274,11.736,12.797,11.779
		l142.214-0.014V180.671z"/>
</g>
</svg>
