<?xml version="1.0" encoding="utf-8"?>
<!-- Generator: Adobe Illustrator 17.0.0, SVG Export Plug-In . SVG Version: 6.00 Build 0)  -->
<!DOCTYPE svg PUBLIC "-//W3C//DTD SVG 1.1//EN" "http://www.w3.org/Graphics/SVG/1.1/DTD/svg11.dtd">
<svg version="1.1" id="Layer_1" xmlns="http://www.w3.org/2000/svg" xmlns:xlink="http://www.w3.org/1999/xlink" x="0px" y="0px"
	 width="256px" height="256px" viewBox="0 0 256 256" enable-background="new 0 0 256 256" xml:space="preserve">
<g>
	<g>
		<path fill="#FFFFFF" d="M86.785,126.643c0,8.259-6.698,14.955-14.956,14.955s-14.948-6.696-14.948-14.955
			c0-8.257,6.69-14.954,14.948-14.954S86.785,118.386,86.785,126.643z"/>
		<path fill="#FFFFFF" d="M141.07,126.643c0,8.259-6.699,14.955-14.952,14.955c-8.265,0-14.956-6.696-14.956-14.955
			c0-8.257,6.691-14.954,14.956-14.954C134.371,111.689,141.07,118.386,141.07,126.643z"/>
		<path fill="#FFFFFF" d="M195.35,126.643c0,8.259-6.695,14.955-14.948,14.955c-8.266,0-14.956-6.696-14.956-14.955
			c0-8.257,6.69-14.954,14.956-14.954C188.655,111.689,195.35,118.386,195.35,126.643z"/>
	</g>
	<path fill="#FFFFFF" d="M215.951,233.894L172.36,212.21c-14.517,4.542-29.82,6.842-45.505,6.842
		c-68.45,0-124.135-44.223-124.135-98.581c0-54.356,55.684-98.577,124.135-98.577c68.447,0,124.134,44.221,124.134,98.577
		c0,25.802-12.4,50.114-34.955,68.59L215.951,233.894z M173.018,203.418l34.792,17.306l0.064-34.399l1.455-2.348l0.551-0.439
		c21.247-16.997,32.945-39.396,32.945-63.068c0-49.852-52.024-90.411-115.969-90.411S10.886,70.618,10.886,120.471
		c0,49.855,52.024,90.415,115.969,90.415c15.406,0,30.402-2.338,44.576-6.951L173.018,203.418z"/>
</g>
</svg>
