<?xml version="1.0" encoding="utf-8"?>
<!-- Generator: Adobe Illustrator 17.0.0, SVG Export Plug-In . SVG Version: 6.00 Build 0)  -->
<!DOCTYPE svg PUBLIC "-//W3C//DTD SVG 1.1//EN" "http://www.w3.org/Graphics/SVG/1.1/DTD/svg11.dtd">
<svg version="1.1" id="Layer_1" xmlns="http://www.w3.org/2000/svg" xmlns:xlink="http://www.w3.org/1999/xlink" x="0px" y="0px"
	 width="256px" height="256px" viewBox="0 0 256 256" enable-background="new 0 0 256 256" xml:space="preserve">
<g>
	<path fill="#FFFFFF" d="M128.004,250c-41.589,0-75.424-33.833-75.424-75.419c0-26.361,14.163-51.177,36.962-64.766l3.973,6.664
		c-20.465,12.197-33.178,34.46-33.178,58.102c0,37.309,30.357,67.663,67.667,67.663c37.307,0,67.659-30.355,67.659-67.663
		c0-23.643-12.709-45.906-33.17-58.102l3.973-6.663c22.794,13.587,36.953,38.404,36.953,64.765
		C203.419,216.167,169.589,250,128.004,250z"/>
	<path fill="#FFFFFF" d="M151.38,68.012l7.052,8.194l-30.435,35.063L97.569,76.207l7.052-8.195H151.38 M154.938,60.255h-53.875
		L87.317,76.228l40.679,46.875l40.687-46.875L154.938,60.255L154.938,60.255z"/>
	<g>
		
			<rect x="55.169" y="50.401" transform="matrix(0.866 0.5 -0.5 0.866 36.4832 -27.6008)" fill="#FFFFFF" width="29.156" height="7.759"/>
		<rect x="46.039" y="84.084" fill="#FFFFFF" width="29.208" height="7.756"/>
		<rect x="124.122" y="6" fill="#FFFFFF" width="7.756" height="29.208"/>
		
			<rect x="79.84" y="25.769" transform="matrix(0.5 0.866 -0.866 0.5 72.8832 -66.9445)" fill="#FFFFFF" width="29.155" height="7.756"/>
		
			<rect x="182.42" y="39.776" transform="matrix(0.5001 0.866 -0.866 0.5001 140.1977 -134.1575)" fill="#FFFFFF" width="7.759" height="29.153"/>
		
			<rect x="157.831" y="15.147" transform="matrix(0.866 0.5 -0.5 0.866 36.5292 -76.8746)" fill="#FFFFFF" width="7.756" height="29.154"/>
		<rect x="180.756" y="84.084" fill="#FFFFFF" width="29.206" height="7.756"/>
	</g>
</g>
</svg>
