<?xml version="1.0" encoding="utf-8"?>
<!-- Generator: Adobe Illustrator 17.0.0, SVG Export Plug-In . SVG Version: 6.00 Build 0)  -->
<!DOCTYPE svg PUBLIC "-//W3C//DTD SVG 1.1//EN" "http://www.w3.org/Graphics/SVG/1.1/DTD/svg11.dtd">
<svg version="1.1" id="Layer_1" xmlns="http://www.w3.org/2000/svg" xmlns:xlink="http://www.w3.org/1999/xlink" x="0px" y="0px"
	 width="256px" height="256px" viewBox="0 0 256 256" enable-background="new 0 0 256 256" xml:space="preserve">
<g>
	<rect x="122.755" y="55.442" fill="#FFFFFF" width="8.2" height="143.856"/>
	<path fill="#FFFFFF" d="M126.855,32.361c52.388,0,95.009,42.621,95.009,95.009s-42.621,95.009-95.009,95.009
		s-95.009-42.621-95.009-95.009S74.467,32.361,126.855,32.361 M126.855,24.87c-56.607,0-102.5,45.893-102.5,102.5
		c0,56.607,45.893,102.5,102.5,102.5c56.607,0,102.5-45.892,102.5-102.5C229.355,70.763,183.463,24.87,126.855,24.87L126.855,24.87z
		"/>
	<path fill="#FFFFFF" d="M123.588,180.255c-14.266,0-26.093-4.96-34.203-14.342l5.666-4.899
		c6.645,7.688,16.514,11.751,28.538,11.751c15.69,0,26.65-8.618,26.65-20.959c0-12.9-10.575-16.919-24.402-20.832
		c-11.888-3.363-29.855-8.446-29.855-28.04c0-16.484,14.357-28.448,34.14-28.448c14.266,0,26.095,4.958,34.204,14.341l-5.666,4.9
		c-6.645-7.687-16.513-11.75-28.538-11.75c-15.69,0-26.65,8.618-26.65,20.958c0,12.902,10.575,16.92,24.402,20.832
		c11.888,3.364,29.854,8.448,29.854,28.04C157.729,168.291,143.371,180.255,123.588,180.255z"/>
</g>
</svg>
